<?xml version="1.0" encoding="UTF-8"?>
<svg xmlns="http://www.w3.org/2000/svg" viewBox="0 0 187 40" width="187" height="40">
  <rect x="0" y="4" width="5" height="28" fill="#B22234" rx="0.5"/>
  <rect x="8" y="4" width="5" height="28" fill="#2C5282" rx="0.5"/>
  <rect x="16" y="4" width="5" height="28" fill="#2D6A4F" rx="0.5"/>
  <g fill="#1A1A1A">
  <path d="M67 0V697H533V581H196V415H489V300H196V0Z" transform="translate(32,26) scale(0.016,-0.016)"/>
  <path d="M67 0V697H297Q382 697 434.0 672.5Q486 648 510.5 602.5Q535 557 535 495Q535 399 480.5 346.5Q426 294 325 288Q302 287 278.0 287.0Q254 287 237 287H196V0ZM446 0 271 302 403 318 595 0ZM196 403H284Q317 403 344.5 410.5Q372 418 389.0 437.5Q406 457 406 493Q406 530 389.0 549.0Q372 568 344.5 574.5Q317 581 284 581H196Z" transform="translate(41.628,26) scale(0.016,-0.016)"/>
  <path d="M67 0V697H196V0Z" transform="translate(52.12,26) scale(0.016,-0.016)"/>
  <path d="M227 0V581H11V697H573V581H358V0Z" transform="translate(57.028,26) scale(0.016,-0.016)"/>
  <path d="M67 0V697H533V581H196V415H489V300H196V0Z" transform="translate(71.932,26) scale(0.016,-0.016)"/>
  <path d="M8 0 288 697H881V581H535V407H839V291H535V116H881V0H405V583H366L149 0ZM179 136 220 255H436V136Z" transform="translate(81.56,26) scale(0.016,-0.016)"/>
  <path d="M67 0V697H196V116H493V0Z" transform="translate(97.108,26) scale(0.016,-0.016)"/>
  <path d="M67 0V697H196V116H493V0Z" transform="translate(105.872,26) scale(0.016,-0.016)"/>
  <path d="M67 0V697H531V581H196V415H509V300H196V116H531V0Z" transform="translate(114.636,26) scale(0.016,-0.016)"/>
  <path d="M297 -13Q186 -13 114.5 45.0Q43 103 28 199L154 230Q165 166 204.5 134.0Q244 102 302 102Q333 102 357.5 112.5Q382 123 396.5 143.5Q411 164 411 192Q411 218 396.0 237.0Q381 256 350.5 272.0Q320 288 274 305Q208 331 163.5 360.5Q119 390 97.0 429.0Q75 468 75 521Q75 577 102.5 620.0Q130 663 179.5 688.0Q229 713 295 713Q365 713 419.5 680.5Q474 648 507 584L404 521Q383 559 354.5 578.5Q326 598 291 598Q266 598 246.5 588.5Q227 579 215.5 562.5Q204 546 204 524Q204 501 217.5 483.0Q231 465 261.5 448.5Q292 432 341 414Q406 390 449.5 361.0Q493 332 516.0 293.5Q539 255 539 200Q539 138 508.5 89.5Q478 41 424.0 14.0Q370 -13 297 -13Z" transform="translate(124.58399999999999,26) scale(0.016,-0.016)"/>
  <path d="M297 -13Q186 -13 114.5 45.0Q43 103 28 199L154 230Q165 166 204.5 134.0Q244 102 302 102Q333 102 357.5 112.5Q382 123 396.5 143.5Q411 164 411 192Q411 218 396.0 237.0Q381 256 350.5 272.0Q320 288 274 305Q208 331 163.5 360.5Q119 390 97.0 429.0Q75 468 75 521Q75 577 102.5 620.0Q130 663 179.5 688.0Q229 713 295 713Q365 713 419.5 680.5Q474 648 507 584L404 521Q383 559 354.5 578.5Q326 598 291 598Q266 598 246.5 588.5Q227 579 215.5 562.5Q204 546 204 524Q204 501 217.5 483.0Q231 465 261.5 448.5Q292 432 341 414Q406 390 449.5 361.0Q493 332 516.0 293.5Q539 255 539 200Q539 138 508.5 89.5Q478 41 424.0 14.0Q370 -13 297 -13Z" transform="translate(134.48399999999998,26) scale(0.016,-0.016)"/>
  <path d="M170 210V374L476 697H650ZM67 0V697H196V0ZM499 0 279 351 375 441 652 0Z" transform="translate(144.384,26) scale(0.016,-0.016)"/>
  <path d="M8 0 288 697H385L665 0H524L338 506L149 0ZM192 136 232 252H442L484 136Z" transform="translate(155.69199999999998,26) scale(0.016,-0.016)"/>
  <path d="M67 0V697H312Q416 697 475.0 650.5Q534 604 534 521Q534 473 514.0 435.5Q494 398 458 377Q516 355 544.0 311.5Q572 268 572 204Q572 108 511.5 54.0Q451 0 344 0ZM196 119H334Q443 119 443 210Q443 254 416.5 278.0Q390 302 341 302H196ZM196 417H318Q358 417 381.5 439.5Q405 462 405 501Q405 538 381.0 558.0Q357 578 312 578H196Z" transform="translate(167.176,26) scale(0.016,-0.016)"/>
  </g>
</svg>